Coordinates
version=1
nRows=5
nColumns=114
inDegrees=yes

Units are S.I. units (second, meters, Newtons, ...)
If the header above contains a line with 'inDegrees', this indicates whether rotational values are in degrees (yes) or radians (no).

endheader 
time	pelvis_tilt	pelvis_list	pelvis_rotation	pelvis_tx	pelvis_ty	pelvis_tz	hip_flexion_l	hip_adduction_l	hip_rotation_l	hip_flexion_r	hip_adduction_r	hip_rotation_r	knee_angle_l	knee_angle_r	ankle_angle_l	ankle_angle_r	subtalar_angle_l	subtalar_angle_r	mtp_angle_l	mtp_angle_r	lumbar_extension	lumbar_bending	lumbar_rotation	arm_flex_l	arm_add_l	arm_rot_l	arm_flex_r	arm_add_r	arm_rot_r	elbow_flex_l	elbow_flex_r	pro_sup_l	pro_sup_r	addbrev_l/activation	addlong_l/activation	addmagDist_l/activation	addmagIsch_l/activation	addmagMid_l/activation	addmagProx_l/activation	bflh_l/activation	bfsh_l/activation	edl_l/activation	ehl_l/activation	fdl_l/activation	fhl_l/activation	gaslat_l/activation	gasmed_l/activation	glmax1_l/activation	glmax2_l/activation	glmax3_l/activation	glmed1_l/activation	glmed2_l/activation	glmed3_l/activation	glmin1_l/activation	glmin2_l/activation	glmin3_l/activation	grac_l/activation	iliacus_l/activation	perbrev_l/activation	perlong_l/activation	piri_l/activation	psoas_l/activation	recfem_l/activation	sart_l/activation	semimem_l/activation	semiten_l/activation	soleus_l/activation	tfl_l/activation	tibant_l/activation	tibpost_l/activation	vasint_l/activation	vaslat_l/activation	vasmed_l/activation	addbrev_r/activation	addlong_r/activation	addmagDist_r/activation	addmagIsch_r/activation	addmagMid_r/activation	addmagProx_r/activation	bflh_r/activation	bfsh_r/activation	edl_r/activation	ehl_r/activation	fdl_r/activation	fhl_r/activation	gaslat_r/activation	gasmed_r/activation	glmax1_r/activation	glmax2_r/activation	glmax3_r/activation	glmed1_r/activation	glmed2_r/activation	glmed3_r/activation	glmin1_r/activation	glmin2_r/activation	glmin3_r/activation	grac_r/activation	iliacus_r/activation	perbrev_r/activation	perlong_r/activation	piri_r/activation	psoas_r/activation	recfem_r/activation	sart_r/activation	semimem_r/activation	semiten_r/activation	soleus_r/activation	tfl_r/activation	tibant_r/activation	tibpost_r/activation	vasint_r/activation	vaslat_r/activation	vasmed_r/activation	
          6.43000000	         10.96351862	         -4.58686819	         -8.03755191	         -5.66303187	          0.90785061	          0.11807057	          0.07625167	         -4.03355275	          1.71335640	         21.39615477	         11.33199998	        -13.38144200	         76.29589062	         50.80619880	        -16.23507320	         15.23580057	        -25.10892426	        -34.99999179	        -44.99839018	        -44.99780390	        -14.75588968	         17.00594096	        -36.43100469	       -314.97773438	        -22.99765273	         81.10613632	       -338.94887585	        -21.11879801	       -122.51336357	         20.61689324	        147.78325457	         92.20512436	         85.94696955	          0.09226778	          0.06427294	          0.01001873	          0.01000475	          0.20678881	          0.18331280	          0.01014514	          0.02074676	          0.21862020	          0.09955721	          0.01005902	          0.01002333	          0.01200455	          0.01200247	          0.01000399	          0.01000210	          0.01000230	          0.01001045	          0.01000816	          0.01000569	          0.01017892	          0.01007980	          0.01003884	          0.13002503	          0.03371308	          0.02532238	          0.06033189	          0.01000940	          0.12840062	          0.05880668	          0.03694232	          0.01064752	          0.01434064	          0.01000266	          0.16394997	          0.22678557	          0.01001194	          0.01000189	          0.01000068	          0.01000187	          0.01004966	          0.01005104	          0.01005400	          0.01007438	          0.01007988	          0.01011172	          0.01294210	          0.01322686	          0.01302112	          0.02478216	          0.01032054	          0.01019683	          0.01019149	          0.01010403	          0.01009477	          0.01008746	          0.01003665	          0.04925055	          0.03845279	          0.01039402	          0.04036393	          0.03881495	          0.01900750	          0.01011398	          0.10121753	          0.05082881	          0.10629986	          0.12511458	          0.01984509	          0.16720944	          0.03170352	          0.02079837	          0.01017750	          0.01001993	          0.22126303	          0.21853268	          0.01009961	          0.01003053	          0.01001133	          0.01002349	
          6.44000000	         10.25799855	         -4.04614012	         -8.65080945	         -5.63094580	          0.93181895	          0.11914258	          6.01548385	         -4.60735873	          1.75820302	         19.80600330	         10.78600312	        -11.99263771	         79.80917048	         52.71030474	        -13.37492283	         16.96041061	        -28.40643476	        -34.99886149	        -39.63141489	        -39.67458790	        -14.64943220	         15.50714260	        -34.92624530	       -311.41586898	        -26.04916738	         85.07240933	       -349.98050838	        -20.78162611	       -104.81280539	         17.37339287	        147.94771530	         91.71641440	         85.00301290	          0.07689913	          0.05356795	          0.05361653	          0.02057640	          0.17233965	          0.15278422	          0.01017985	          0.01730041	          0.18218799	          0.08299265	          0.01002390	          0.01001128	          0.01001346	          0.01000780	          0.01002275	          0.01001309	          0.01008891	          0.01001832	          0.01002151	          0.01001896	          0.01008799	          0.01008173	          0.01006864	          0.10836401	          0.02810897	          0.02118413	          0.05029457	          0.01002272	          0.10701088	          0.10131695	          0.03079696	          0.01029558	          0.01196797	          0.01000120	          0.13662606	          0.24578588	          0.01000474	          0.01507993	          0.01208473	          0.10204052	          0.01005159	          0.01004981	          0.01003692	          0.01003761	          0.01006716	          0.01012926	          0.01080288	          0.05648862	          0.08357778	          0.08686167	          0.01023421	          0.01004895	          0.01000370	          0.01000184	          0.01009793	          0.01004520	          0.01002555	          0.04107348	          0.03316998	          0.02995549	          0.03375805	          0.03301454	          0.02270218	          0.01040114	          0.08498104	          0.05398701	          0.08863221	          0.11943515	          0.09323738	          0.21575673	          0.09234628	          0.01733698	          0.01016005	          0.01000171	          0.18446181	          0.18211726	          0.01005383	          0.01001579	          0.01000580	          0.01001206	
          6.45000000	          9.32073738	         -3.51125804	         -9.38932116	         -5.59957907	          0.95426597	          0.12016134	         12.23268258	         -5.22310830	          1.85060346	         18.50909910	         10.24515761	        -10.51263974	         82.80666055	         54.21917517	        -10.79079691	         18.38984672	        -31.34683532	        -34.99660508	        -34.90290071	        -34.98207553	        -14.42608891	         14.04652313	        -33.26455830	       -307.92633708	        -28.34562363	         85.35150353	       -356.37940941	        -19.86302477	        -96.50123222	         14.08475687	        146.52192663	         91.23592926	         84.30429840	          0.06408855	          0.04464453	          0.04469045	          0.01720206	          0.14362448	          0.12741895	          0.01005342	          0.01442864	          0.15182899	          0.06920120	          0.01550144	          0.01005023	          0.01001033	          0.01000552	          0.01002232	          0.01001249	          0.02503888	          0.01001592	          0.01001893	          0.01001737	          0.01008102	          0.01007660	          0.01006467	          0.09031587	          0.02343572	          0.01767121	          0.04191549	          0.01220959	          0.08918894	          0.13632410	          0.02567697	          0.01017259	          0.01004570	          0.01000143	          0.11385999	          0.21432749	          0.02304712	          0.09968468	          0.19531233	          0.11939155	          0.01004589	          0.01004848	          0.01002635	          0.01002546	          0.01005025	          0.01011831	          0.01003518	          0.04751981	          0.06966005	          0.07239705	          0.01035921	          0.01017693	          0.01012777	          0.01071293	          0.01007177	          0.01002833	          0.01001771	          0.03424786	          0.03287870	          0.03961243	          0.02842604	          0.03405652	          0.02840534	          0.01018147	          0.13929728	          0.04504565	          0.07582828	          0.18059810	          0.15267036	          0.25500372	          0.11170489	          0.01445347	          0.01006691	          0.01000971	          0.17322120	          0.15177523	          0.01010050	          0.01001547	          0.01000572	          0.01001176	
          6.46000000	          8.36804980	         -3.07388865	        -10.24439537	         -5.56842996	          0.97575713	          0.12091676	         18.22089211	         -5.93566838	          2.01838557	         17.13459977	          9.73505734	         -9.01616197	         84.82704684	         55.19364659	         -8.65845246	         19.67509154	        -33.45279270	        -34.98719946	        -30.72830018	        -30.85713685	        -14.32758695	         12.72837429	        -31.23262482	       -304.09279578	        -29.75506156	         83.57165768	       -358.82626313	        -18.22568545	        -97.09514853	         10.79724644	        144.22199895	         90.21397999	         83.42979944	          0.05341102	          0.03720683	          0.03724626	          0.01435318	          0.11969132	          0.10641421	          0.01004063	          0.01203840	          0.12653333	          0.05768894	          0.01624507	          0.01258414	          0.01001070	          0.01000536	          0.01005574	          0.01003208	          0.20154532	          0.01001640	          0.01002525	          0.01003462	          0.01006810	          0.01008511	          0.01010435	          0.07527483	          0.01953910	          0.01474682	          0.03495508	          0.12463021	          0.07433793	          0.14881229	          0.02141367	          0.01008563	          0.01002762	          0.01000195	          0.09488496	          0.17861709	          0.02885505	          0.08308536	          0.16276352	          0.09950451	          0.01003890	          0.01004442	          0.01002078	          0.01002000	          0.01003893	          0.01010681	          0.01003362	          0.08506379	          0.05939966	          0.06036630	          0.01034904	          0.01013106	          0.02796242	          0.01049854	          0.01006289	          0.01002153	          0.01001408	          0.02855492	          0.04411259	          0.07397942	          0.02427407	          0.04494044	          0.04652168	          0.01041618	          0.18532680	          0.03760351	          0.06634116	          0.21278248	          0.23808491	          0.26909070	          0.17152972	          0.01205410	          0.01005037	          0.01001047	          0.17018344	          0.12663733	          0.01010163	          0.01001142	          0.01000420	          0.01000863	
          6.47000000	          7.55752672	         -2.70820951	        -11.23519684	         -5.53713975	          0.99673557	          0.12149000	         23.56713848	         -6.71279619	          2.18869711	         15.46183654	          9.16153957	         -7.52486131	         85.55831390	         55.59799366	         -6.83515927	         20.61121464	        -34.59838843	        -34.98775268	        -27.03608579	        -27.23572196	        -14.44363545	         11.50415584	        -28.99108327	       -300.05062332	        -30.72601838	         80.87623408	       -359.08115607	        -16.04825968	       -101.50503737	          8.09383699	        141.43357220	         89.02906631	         82.54494248	          0.04451214	          0.03100800	          0.03104128	          0.01197667	          0.09974579	          0.09978233	          0.01007157	          0.01007576	          0.10546763	          0.04810577	          0.01356220	          0.01051279	          0.01001887	          0.01001027	          0.01536647	          0.05090904	          0.31374738	          0.01001260	          0.01002261	          0.01004964	          0.01004672	          0.01006668	          0.01010467	          0.06274434	          0.01629130	          0.01794405	          0.02919055	          0.16784902	          0.06196512	          0.12702955	          0.01787216	          0.01001976	          0.01002372	          0.01000888	          0.07907324	          0.15740730	          0.02404941	          0.06924223	          0.13563740	          0.08292337	          0.01003466	          0.01005049	          0.01001661	          0.01001636	          0.01002993	          0.01009979	          0.01003071	          0.07093075	          0.04955451	          0.05034202	          0.01057197	          0.01013671	          0.02777700	          0.01278472	          0.01005444	          0.01001711	          0.01001151	          0.02380797	          0.04851655	          0.08904325	          0.02078773	          0.05524864	          0.05446240	          0.02418623	          0.26284667	          0.03138591	          0.08780162	          0.23520626	          0.34013626	          0.27077240	          0.25607639	          0.01033166	          0.01004645	          0.01000725	          0.16879539	          0.14232448	          0.01015481	          0.01000799	          0.01000291	          0.01000599	
